<svg width="249" height="249" viewBox="0 0 249 249" fill="none" xmlns="http://www.w3.org/2000/svg">
<circle cx="124.5" cy="124.5" r="124.25" fill="white" stroke="#4285F4" stroke-width="0.5"/>
<circle cx="213" cy="205" r="26.75" fill="#D9D9D9" stroke="black" stroke-width="0.5"/>
<path d="M218.5 193C220.75 193 223 190.75 223 188.5C223 190.75 225.25 193 227.5 193C225.25 193 223 195.25 223 197.5C223 195.25 220.75 193 218.5 193ZM218 196.75C218.417 196.75 219.25 195.917 219.25 195.5C219.25 195.917 220.083 196.75 220.5 196.75C220.083 196.75 219.25 197.583 219.25 198C219.25 197.583 218.417 196.75 218 196.75ZM225 189.5C225.5 189.5 226.5 188.5 226.5 188C226.5 188.5 227.5 189.5 228 189.5C227.5 189.5 226.5 190.5 226.5 191C226.5 190.5 225.5 189.5 225 189.5Z" stroke="black" stroke-width="0.5" stroke-linecap="round" stroke-linejoin="round"/>
<path d="M72.2273 159V152.864L95.2727 127.636C97.9773 124.682 100.205 122.114 101.955 119.932C103.705 117.727 105 115.659 105.841 113.727C106.705 111.773 107.136 109.727 107.136 107.591C107.136 105.136 106.545 103.011 105.364 101.216C104.205 99.4205 102.614 98.0341 100.591 97.0568C98.5682 96.0795 96.2955 95.5909 93.7727 95.5909C91.0909 95.5909 88.75 96.1477 86.75 97.2614C84.7727 98.3523 83.2386 99.8864 82.1477 101.864C81.0795 103.841 80.5455 106.159 80.5455 108.818H72.5C72.5 104.727 73.4432 101.136 75.3295 98.0455C77.2159 94.9545 79.7841 92.5455 83.0341 90.8182C86.3068 89.0909 89.9773 88.2273 94.0455 88.2273C98.1364 88.2273 101.761 89.0909 104.92 90.8182C108.08 92.5455 110.557 94.875 112.352 97.8068C114.148 100.739 115.045 104 115.045 107.591C115.045 110.159 114.58 112.67 113.648 115.125C112.739 117.557 111.148 120.273 108.875 123.273C106.625 126.25 103.5 129.886 99.5 134.182L83.8182 150.955V151.5H116.273V159H72.2273ZM127.216 144.682V137.727L157.898 89.1818H162.943V99.9545H159.534L136.352 136.636V137.182H177.67V144.682H127.216ZM160.08 159V142.568V139.33V89.1818H168.125V159H160.08Z" fill="#4285F4"/>
<mask id="path-5-inside-1_132_141" fill="white">
<path d="M207.5 212.625V198.375C207.5 198.276 207.54 198.18 207.61 198.11C207.68 198.04 207.776 198 207.875 198H215.375C215.474 198 215.57 198.04 215.64 198.11C215.71 198.18 215.75 198.276 215.75 198.375V212.625"/>
</mask>
<path d="M207.5 198.375H208H207.5ZM207.875 198V198.5V198ZM208 212.625V198.375H207V212.625H208ZM208 198.375C208 198.408 207.987 198.44 207.963 198.463L207.256 197.756C207.092 197.92 207 198.143 207 198.375H208ZM207.963 198.463C207.94 198.487 207.908 198.5 207.875 198.5V197.5C207.643 197.5 207.42 197.592 207.256 197.756L207.963 198.463ZM207.875 198.5H215.375V197.5H207.875V198.5ZM215.375 198.5C215.342 198.5 215.31 198.487 215.287 198.463L215.994 197.756C215.83 197.592 215.607 197.5 215.375 197.5V198.5ZM215.287 198.463C215.263 198.44 215.25 198.408 215.25 198.375H216.25C216.25 198.143 216.158 197.92 215.994 197.756L215.287 198.463ZM215.25 198.375V212.625H216.25V198.375H215.25Z" fill="black" mask="url(#path-5-inside-1_132_141)"/>
<path d="M207.5 212.625V198.375C207.5 198.276 207.54 198.18 207.61 198.11C207.68 198.04 207.776 198 207.875 198H215.375C215.474 198 215.57 198.04 215.64 198.11C215.71 198.18 215.75 198.276 215.75 198.375V212.625M215.75 201.75L219.5 204V212.625" stroke="black" stroke-width="0.5" stroke-linecap="round" stroke-linejoin="round"/>
<path d="M206 212.625H221" stroke="black" stroke-width="0.5" stroke-linecap="round"/>
</svg>
