<svg width="249" height="249" viewBox="0 0 249 249" fill="none" xmlns="http://www.w3.org/2000/svg">
<circle cx="124.5" cy="124.5" r="124.25" fill="white" stroke="#4285F4" stroke-width="0.5"/>
<circle cx="213" cy="205" r="26.75" fill="#D9D9D9" stroke="black" stroke-width="0.5"/>
<path d="M213.5 204.53C212.616 204.53 211.86 204.21 211.23 203.57C210.6 202.93 210.285 202.161 210.286 201.264C210.286 200.367 210.601 199.598 211.23 198.957C211.858 198.315 212.615 197.996 213.5 198C214.385 198.004 215.142 198.323 215.77 198.958C216.399 199.593 216.714 200.362 216.714 201.265C216.715 202.169 216.4 202.937 215.77 203.571C215.14 204.204 214.384 204.523 213.5 204.53ZM206 212.4V210.608C206 210.159 206.129 209.739 206.386 209.348C206.644 208.956 206.99 208.652 207.425 208.436C208.436 207.943 209.449 207.574 210.461 207.328C211.474 207.081 212.486 206.958 213.5 206.958C214.514 206.958 215.527 207.081 216.54 207.328C217.552 207.575 218.564 207.944 219.574 208.436C220.01 208.652 220.356 208.956 220.613 209.348C220.871 209.739 221 210.159 221 210.608V212.4H206ZM207.071 211.312H219.929V210.608C219.929 210.368 219.852 210.141 219.698 209.928C219.545 209.716 219.334 209.537 219.063 209.39C218.181 208.957 217.272 208.624 216.335 208.393C215.398 208.163 214.453 208.047 213.5 208.046C212.547 208.046 211.602 208.161 210.665 208.392C209.728 208.624 208.819 208.956 207.937 209.389C207.666 209.536 207.454 209.715 207.302 209.927C207.148 210.14 207.071 210.367 207.071 210.608V211.312ZM213.5 203.442C214.089 203.442 214.594 203.229 215.014 202.802C215.434 202.376 215.644 201.863 215.643 201.263C215.642 200.664 215.432 200.152 215.014 199.726C214.595 199.301 214.091 199.088 213.5 199.086C212.909 199.085 212.405 199.298 211.987 199.726C211.569 200.154 211.359 200.667 211.357 201.263C211.355 201.86 211.565 202.372 211.987 202.801C212.409 203.23 212.914 203.443 213.5 203.44" fill="black"/>
<path d="M218.5 193C220.75 193 223 190.75 223 188.5C223 190.75 225.25 193 227.5 193C225.25 193 223 195.25 223 197.5C223 195.25 220.75 193 218.5 193ZM218 196.75C218.417 196.75 219.25 195.917 219.25 195.5C219.25 195.917 220.083 196.75 220.5 196.75C220.083 196.75 219.25 197.583 219.25 198C219.25 197.583 218.417 196.75 218 196.75ZM225 189.5C225.5 189.5 226.5 188.5 226.5 188C226.5 188.5 227.5 189.5 228 189.5C227.5 189.5 226.5 190.5 226.5 191C226.5 190.5 225.5 189.5 225 189.5Z" stroke="black" stroke-width="0.5" stroke-linecap="round" stroke-linejoin="round"/>
<path d="M133.773 89.1818V159H125.318V98.0455H124.909L107.864 109.364V100.773L125.318 89.1818H133.773Z" fill="#4285F4"/>
</svg>
