<svg width="249" height="249" viewBox="0 0 249 249" fill="none" xmlns="http://www.w3.org/2000/svg">
<circle cx="124.5" cy="124.5" r="124.25" fill="white" stroke="#4285F4" stroke-width="0.5"/>
<circle cx="213" cy="205" r="26.75" fill="#D9D9D9" stroke="black" stroke-width="0.5"/>
<path d="M218.5 193C220.75 193 223 190.75 223 188.5C223 190.75 225.25 193 227.5 193C225.25 193 223 195.25 223 197.5C223 195.25 220.75 193 218.5 193ZM218 196.75C218.417 196.75 219.25 195.917 219.25 195.5C219.25 195.917 220.083 196.75 220.5 196.75C220.083 196.75 219.25 197.583 219.25 198C219.25 197.583 218.417 196.75 218 196.75ZM225 189.5C225.5 189.5 226.5 188.5 226.5 188C226.5 188.5 227.5 189.5 228 189.5C227.5 189.5 226.5 190.5 226.5 191C226.5 190.5 225.5 189.5 225 189.5Z" stroke="black" stroke-width="0.5" stroke-linecap="round" stroke-linejoin="round"/>
<path d="M133.773 89.1818V159H125.318V98.0455H124.909L107.864 109.364V100.773L125.318 89.1818H133.773Z" fill="#4285F4"/>
</svg>
