<svg width="249" height="249" viewBox="0 0 249 249" fill="none" xmlns="http://www.w3.org/2000/svg">
<circle cx="124.5" cy="124.5" r="124.25" fill="white" stroke="#4285F4" stroke-width="0.5"/>
<circle cx="213" cy="205" r="26.75" fill="#D9D9D9" stroke="black" stroke-width="0.5"/>
<path d="M218.5 193C220.75 193 223 190.75 223 188.5C223 190.75 225.25 193 227.5 193C225.25 193 223 195.25 223 197.5C223 195.25 220.75 193 218.5 193ZM218 196.75C218.417 196.75 219.25 195.917 219.25 195.5C219.25 195.917 220.083 196.75 220.5 196.75C220.083 196.75 219.25 197.583 219.25 198C219.25 197.583 218.417 196.75 218 196.75ZM225 189.5C225.5 189.5 226.5 188.5 226.5 188C226.5 188.5 227.5 189.5 228 189.5C227.5 189.5 226.5 190.5 226.5 191C226.5 190.5 225.5 189.5 225 189.5Z" stroke="black" stroke-width="0.5" stroke-linecap="round" stroke-linejoin="round"/>
<path d="M133.773 89.1818V159H125.318V98.0455H124.909L107.864 109.364V100.773L125.318 89.1818H133.773Z" fill="#4285F4"/>
<mask id="path-5-inside-1_132_143" fill="white">
<path d="M207.5 212.625V198.375C207.5 198.276 207.54 198.18 207.61 198.11C207.68 198.04 207.776 198 207.875 198H215.375C215.474 198 215.57 198.04 215.64 198.11C215.71 198.18 215.75 198.276 215.75 198.375V212.625"/>
</mask>
<path d="M207.5 198.375H208H207.5ZM207.875 198V198.5V198ZM208 212.625V198.375H207V212.625H208ZM208 198.375C208 198.408 207.987 198.44 207.963 198.463L207.256 197.756C207.092 197.92 207 198.143 207 198.375H208ZM207.963 198.463C207.94 198.487 207.908 198.5 207.875 198.5V197.5C207.643 197.5 207.42 197.592 207.256 197.756L207.963 198.463ZM207.875 198.5H215.375V197.5H207.875V198.5ZM215.375 198.5C215.342 198.5 215.31 198.487 215.287 198.463L215.994 197.756C215.83 197.592 215.607 197.5 215.375 197.5V198.5ZM215.287 198.463C215.263 198.44 215.25 198.408 215.25 198.375H216.25C216.25 198.143 216.158 197.92 215.994 197.756L215.287 198.463ZM215.25 198.375V212.625H216.25V198.375H215.25Z" fill="black" mask="url(#path-5-inside-1_132_143)"/>
<path d="M207.5 212.625V198.375C207.5 198.276 207.54 198.18 207.61 198.11C207.68 198.04 207.776 198 207.875 198H215.375C215.474 198 215.57 198.04 215.64 198.11C215.71 198.18 215.75 198.276 215.75 198.375V212.625M215.75 201.75L219.5 204V212.625" stroke="black" stroke-width="0.5" stroke-linecap="round" stroke-linejoin="round"/>
<path d="M206 212.625H221" stroke="black" stroke-width="0.5" stroke-linecap="round"/>
</svg>
